<svg width="219" height="217" viewBox="0 0 219 217" fill="none" xmlns="http://www.w3.org/2000/svg">
<path d="M109.401 0L120.546 56.9659L153.898 9.45821L140.91 66.0324L190.702 36.1974L155.826 82.5978L213.448 75.5942L162.714 103.798L218.203 120.837L160.384 125.966L204.145 164.102L149.238 145.271L173.705 197.908L131.205 158.373L132.147 216.411L109.401 163.007L86.6553 216.411L87.5973 158.373L45.0967 197.908L69.5636 145.271L14.657 164.102L58.4182 125.966L0.599312 120.837L56.0882 103.798L5.35447 75.5942L62.9764 82.5978L28.1002 36.1974L77.8919 66.0324L64.9036 9.45821L98.2556 56.9659L109.401 0Z" fill="#CDEA54"/>
</svg>
